Coordinates
version=1
nRows=17
nColumns=36
inDegrees=yes

Units are S.I. units (second, meters, Newtons, ...)
If the header above contains a line with 'inDegrees', this indicates whether rotational values are in degrees (yes) or radians (no).

endheader
time	pelvis_tilt	pelvis_list	pelvis_rotation	pelvis_tx	pelvis_ty	pelvis_tz	hip_flexion_r	hip_adduction_r	hip_rotation_r	knee_angle_r	knee_angle_r_beta	ankle_angle_r	subtalar_angle_r	mtp_angle_r	hip_flexion_l	hip_adduction_l	hip_rotation_l	knee_angle_l	knee_angle_l_beta	ankle_angle_l	subtalar_angle_l	mtp_angle_l	lumbar_extension	lumbar_bending	lumbar_rotation	arm_flex_r	arm_add_r	arm_rot_r	elbow_flex_r	pro_sup_r	arm_flex_l	arm_add_l	arm_rot_l	elbow_flex_l	pro_sup_l
     14.91666670	      5.82303446	      0.35440232	     -7.39318329	      0.43527057	      0.92360523	      0.73993900	    -21.34920470	      1.49703238	      2.89026349	      7.01036544	      0.12235396	     22.36287132	     -1.83554177	     -7.49999987	     27.82862609	      0.53500793	     -0.80160352	     24.47409835	      0.42715360	     13.17877807	     -6.10238744	     -7.49999987	    -15.14324979	     -2.45276620	      7.81260327	     17.95290858	    -16.56644032	     12.34276220	     37.13304796	    104.34650898	      4.91122349	    -10.54980585	     18.58146413	     17.19987454	    107.42600917
     14.93333330	      7.70618103	      0.68842860	     -7.05191345	      0.43754535	      0.92119317	      0.73767500	    -24.22070137	      0.85703723	      2.21904405	      7.41921384	      0.12948971	     22.69564733	     -2.07378057	     -7.49999987	     25.87591690	      1.78714254	      0.59187189	     25.85286084	      0.45121754	     11.31079191	     -8.61140507	     -7.49999987	    -17.13923075	     -3.04083187	      7.06466108	     18.50285663	    -16.31750493	     12.26088618	     37.17342844	    104.75453779	      5.43445043	    -10.51455480	     18.38374872	     16.99393801	    107.68861294
     14.95000000	      8.48472313	      1.05998653	     -7.18413075	      0.43981606	      0.91991506	      0.73664425	    -25.43376740	      0.06047419	      1.81177363	      8.78681529	      0.15335886	     22.98957143	     -2.52446019	     -7.49999987	     24.75289033	      2.60694208	      0.93613469	     27.21893204	      0.47505998	      9.34960616	    -10.40154875	     -7.49999987	    -17.58868172	     -3.75712962	      6.96023620	     18.45758866	    -16.06159055	     12.46597967	     36.93050340	    105.05689870	      5.80563901	    -10.42939650	     18.00924996	     16.47282323	    107.62813337
     14.96666670	      9.29252369	      1.26799767	     -7.37359255	      0.44028025	      0.92151385	      0.73584948	    -26.17764063	     -0.63571336	      1.48718836	     10.96987329	      0.19146041	     22.57627498	     -3.46513447	     -7.49999987	     23.29128158	      3.21090637	      1.10916945	     28.43825416	      0.49634117	      7.77550457	    -11.76501418	     -7.49999987	    -18.08861654	     -4.38148646	      7.25447652	     18.14465619	    -15.75096641	     11.90453552	     36.50894727	    106.11223817	      6.27038883	    -10.43043517	     17.87523745	     16.41889047	    108.42284437
     14.98333330	      9.98114872	      1.53569747	     -7.43059377	      0.43987829	      0.92496252	      0.73361213	    -26.13827242	     -1.39640153	      0.94264961	     14.24472124	      0.24861729	     21.22955115	     -4.82613993	     -7.49999987	     21.71913783	      3.90998480	      1.34922916	     29.48524448	      0.51461460	      6.21644429	    -13.23292242	     -7.49999987	    -18.54968523	     -4.95050715	      7.09204998	     17.89875996	    -15.28436853	     11.51104075	     36.06064933	    105.69459350	      6.60806068	    -10.46981839	     17.70397466	     16.29870171	    107.86977895
     15.00000000	     10.66377018	      1.75918776	     -7.32929192	      0.44115725	      0.93079227	      0.73008706	    -24.98055687	     -2.18917941	      0.17899156	     19.34473386	      0.33762930	     18.08875676	     -7.03511328	     -7.49999987	     19.84614072	      4.57596883	      1.47947759	     30.22710492	      0.52756250	      5.03692146	    -14.37160661	     -7.49999987	    -19.03080035	     -5.36013546	      6.35656360	     17.73350840	    -14.61376222	     11.56789970	     35.24353669	    104.16908503	      6.65238811	    -10.68152233	     17.78027924	     16.33466435	    106.01489521
     15.01666670	     10.96719901	      1.87620276	     -7.18472734	      0.44617593	      0.93869298	      0.72750635	    -21.76788409	     -3.02339055	     -0.58273262	     27.10382349	      0.47305096	     12.06376488	    -10.60146879	     -7.49999987	     17.96620644	      5.05462419	      1.42113823	     30.42356306	      0.53099135	      4.17024949	    -15.23228709	     -7.49999987	    -19.03643539	     -5.53233102	      5.79832023	     16.98887650	    -14.01581819	     11.30071056	     34.17965635	    103.85100443	      6.76561833	    -10.65722153	     17.86525473	     15.86069972	    105.94270845
     15.03333330	     10.89121965	      2.10765575	     -7.46392246	      0.45333633	      0.94601373	      0.72684774	    -16.59153125	     -4.26937454	     -1.04102828	     36.97255952	      0.64529290	      3.44405857	    -14.61812601	     -7.49999987	     15.94148194	      5.50003208	      0.98244240	     29.49363078	      0.51476097	      3.85982194	    -15.62171466	     -7.49999987	    -18.63416319	     -5.84560430	      5.31092078	     15.71953373	    -13.16240691	      9.65975655	     33.49187778	    107.34620735	      6.09696878	    -10.76647744	     16.54857832	     16.61782752	    108.64151594
     15.05000000	     10.54821144	      2.36276517	     -8.18578349	      0.45879917	      0.95067665	      0.72641241	    -10.73898010	     -5.48936629	     -0.83557568	     46.40925465	      0.80999430	     -5.39622094	    -18.28650625	     -7.49999987	     13.78513019	      5.88447600	      0.38840161	     27.48982491	      0.47978796	      4.04968222	    -15.54844962	     -7.49999987	    -17.93435073	     -6.26077562	      5.15604407	     14.41482598	    -12.51877289	      9.20868239	     32.55038729	    107.56619616	      5.65670445	    -10.75040223	     16.57249694	     16.62178278	    108.77752509
     15.06666670	     10.39072895	      2.47776128	     -9.13085835	      0.46090708	      0.95315700	      0.72561415	     -5.55290999	     -6.33388729	     -0.31765902	     53.96127733	      0.94180196	    -10.67899152	    -20.24751319	     -7.49999987	     11.30749546	      6.12735297	     -0.28006906	     25.10790424	      0.43821560	      4.44518656	    -15.27387535	     -7.49999987	    -17.42915108	     -6.58978916	      5.23886606	     13.24225738	    -11.98952503	      8.81588036	     31.43062262	    106.95585628	      5.40794358	    -10.61556996	     16.65277127	     16.21176706	    108.13906511
     15.08333330	     10.37631585	      2.38662066	     -9.96138900	      0.46107886	      0.95428958	      0.72511387	     -1.23880622	     -6.61932978	      0.22293315	     59.43204824	      1.03728492	    -12.16113638	    -21.00597150	     -7.49999987	      8.77291196	      6.15196785	     -1.02114040	     22.92734685	      0.40015769	      5.00273781	    -14.72161164	     -7.49999987	    -17.16143097	     -6.71341318	      5.39886731	     12.06538648	    -11.58391109	      8.07088511	     30.50548733	    107.30574817	      5.31615217	    -10.54531157	     16.76785768	     16.10213421	    108.36639131
     15.10000000	     10.56170409	      2.07511378	    -10.55461359	      0.46003957	      0.95526936	      0.72519494	      2.19070308	     -6.35898177	      0.72687846	     63.11338762	      1.10153642	    -10.78870139	    -20.99010135	     -7.49999987	      6.19178420	      5.98790886	     -1.71223097	     21.08699123	      0.36803743	      5.61602153	    -14.08319071	     -7.49999987	    -17.28033946	     -6.58060256	      5.47594667	     10.90949713	    -11.31696298	      7.00684033	     29.97489404	    107.64756848	      5.44733060	    -10.46229705	     16.78553197	     16.11226575	    108.47961278
     15.11666670	     10.75947709	      1.60516545	    -10.87425989	      0.45661373	      0.95678496	      0.72609412	      5.06671111	     -5.63433464	      1.13747438	     65.33688589	      1.14034378	     -7.56209558	    -20.56193762	     -7.49999987	      3.81354275	      5.67680383	     -2.18465904	     19.57125916	      0.34158291	      6.25248896	    -13.50337162	     -7.49999987	    -17.53938540	     -6.23103301	      5.46749380	      9.78897445	    -11.11769870	      5.79619170	     29.53998156	    108.05852946	      5.88988054	    -10.37313970	     17.07341647	     16.04146106	    108.65860800
     15.13333330	     10.76463872	      1.04941552	    -11.03513095	      0.45018770	      0.95891519	      0.72830324	      7.79158485	     -4.55291573	      1.46522917	     66.38966546	      1.15871825	     -3.61955226	    -19.92457112	     -7.49999987	      1.86881883	      5.21362144	     -2.60779395	     18.36142366	      0.32046730	      7.09291200	    -12.84099586	     -7.49999987	    -17.58882363	     -5.75164310	      5.41590738	      8.99735069	    -10.99924411	      5.69028245	     28.44092650	    107.17649260	      6.66132809	    -10.26566816	     17.79237298	     15.48467182	    107.70869173
     15.15000000	     10.77857476	      0.38508929	    -11.09361172	      0.44316601	      0.96219962	      0.73164862	     10.21295448	     -3.18634565	      1.67806743	     66.45932591	      1.15993406	      0.11929218	    -19.20694947	     -7.49999987	     -0.01305573	      4.64282021	     -2.82042544	     17.19762812	      0.30015523	      7.82489929	    -12.45012176	     -7.49999987	    -17.87542925	     -5.15605389	      5.48228936	      7.95604386	    -10.77307952	      4.28449040	     28.30856727	    108.16877278	      7.63190454	    -10.36034776	     19.14080868	     15.43068796	    108.70353596
     15.16666670	     10.58214292	     -0.19185919	    -11.16543032	      0.43879611	      0.96569837	      0.73474791	     12.69549683	     -1.77467512	      1.85034436	     65.85172084	      1.14932935	      3.15253281	    -18.26268938	     -7.49999987	     -1.64256919	      4.12658685	     -2.88032258	     16.02018161	      0.27960492	      8.55027476	    -12.13973073	     -7.49999987	    -17.85981179	     -4.62600300	      5.32737568	      7.41332392	    -10.37572531	      3.56729090	     27.33039751	    108.29582998	      8.46081276	    -10.45638194	     19.60563201	     15.23633812	    108.84881352
     15.18333330	     10.48126976	     -0.85100276	    -11.17018302	      0.43663627	      0.96861200	      0.73562978	     14.69729913	     -0.30125808	      1.85497702	     64.29143576	      1.12209723	      4.92417337	    -17.50838041	     -7.49999987	     -3.42000016	      3.53560007	     -2.88356235	     14.80990204	      0.25848155	      9.48353625	    -11.56212142	     -7.49999987	    -18.01477307	     -3.99258545	      5.14893049	      6.76227371	    -10.04594241	      3.07925691	     26.73233896	    108.20221440	      9.31158039	    -10.64864842	     20.67494744	     15.16077813	    108.76767898
